<?xml version="1.0" standalone="no"?><!DOCTYPE svg PUBLIC "-//W3C//DTD SVG 1.1//EN" "http://www.w3.org/Graphics/SVG/1.1/DTD/svg11.dtd"><svg t="1481949758413" class="icon" style="" viewBox="0 0 1024 1024" version="1.1" xmlns="http://www.w3.org/2000/svg" p-id="6888" xmlns:xlink="http://www.w3.org/1999/xlink" width="200" height="200"><defs><style type="text/css"></style></defs><path d="M512 0c282.752 0 512 229.248 512 512 0 282.816-229.248 512-512 512-282.752 0-512-229.184-512-512C0 229.248 229.248 0 512 0zM512 944.32c238.72 0 432.32-193.536 432.32-432.32S750.72 79.68 512 79.68 79.68 273.28 79.68 512 273.28 944.32 512 944.32zM484.416 484.864 484.416 208.768l80.448 0L564.864 463.36l0 50.944 0 50.88L251.392 565.184 251.392 484.864 484.416 484.864z" p-id="6889"></path></svg>