<?xml version="1.0" standalone="no"?><!DOCTYPE svg PUBLIC "-//W3C//DTD SVG 1.1//EN" "http://www.w3.org/Graphics/SVG/1.1/DTD/svg11.dtd"><svg t="1482111394824" class="icon" style="" viewBox="0 0 1024 1024" version="1.1" xmlns="http://www.w3.org/2000/svg" p-id="1561" xmlns:xlink="http://www.w3.org/1999/xlink" width="200" height="200"><defs><style type="text/css"></style></defs><path d="M520 924q0-8-8-8-29.5 0-50.75-21.25t-21.25-50.75q0-8-8-8t-8 8q0 36.5 25.75 62.25t62.25 25.75q8 0 8-8zM187 780l650 0q-133-150-133-416 0-25.5-12-52.5t-34.5-51.5-60.75-40.25-84.75-15.75-84.75 15.75-60.75 40.25-34.5 51.5-12 52.5q0 266-133 416zM928 780q0 26-19 45t-45 19l-224 0q0 53-37.5 90.5t-90.5 37.5-90.5-37.5-37.5-90.5l-224 0q-26 0-45-19t-19-45q25-21 45.5-44t42.5-59.75 37.25-79.25 25-103 9.75-130q0-76 58.5-141.25t153.5-79.25q-4-9.5-4-19.5 0-20 14-34t34-14 34 14 14 34q0 10-4 19.5 95 14 153.5 79.25t58.5 141.25q0 69.5 9.75 130t25 103 37.25 79.25 42.5 59.75 45.5 44z" p-id="1562"></path></svg>