<?xml version="1.0" standalone="no"?><!DOCTYPE svg PUBLIC "-//W3C//DTD SVG 1.1//EN" "http://www.w3.org/Graphics/SVG/1.1/DTD/svg11.dtd"><svg t="1481949609864" class="icon" style="" viewBox="0 0 1024 1024" version="1.1" xmlns="http://www.w3.org/2000/svg" p-id="4943" xmlns:xlink="http://www.w3.org/1999/xlink" width="200" height="200"><defs><style type="text/css"></style></defs><path d="M793.344 559.104c0 0-111.552-141.44-265.408-141.44-150.272 0-298.816 141.44-298.816 141.44L145.6 515.84l0 127.04c13.184 5.632 22.72 20.608 22.72 38.848 0 18.496-9.792 33.6-23.104 38.848l24.64 85.76L97.088 806.336l24.896-86.4c-11.968-6.4-20.352-21.12-20.352-38.272 0-16.896 8.128-31.104 19.776-37.76l0-140.8L0 440.256l534.016-298.048L1024 444.032 793.344 559.104zM521.856 489.344c154.752 0 230.656 101.888 230.656 101.888l0 211.264c0 0-78.848 79.232-242.752 79.232-163.84 0-218.496-79.232-218.496-79.232L291.264 591.232C291.264 591.232 367.104 489.344 521.856 489.344zM518.848 836.352c107.264 0 194.24-27.008 194.24-60.224 0-33.344-86.912-60.352-194.24-60.352-107.2 0-194.176 27.008-194.176 60.352C324.672 809.344 411.648 836.352 518.848 836.352z" p-id="4944"></path></svg>